<?xml version="1.0" encoding="UTF-8" standalone="no"?>
<!-- Generator: Adobe Illustrator 16.0.0, SVG Export Plug-In . SVG Version: 6.00 Build 0)  -->

<svg
   xmlns:dc="http://purl.org/dc/elements/1.1/"
   xmlns:cc="http://creativecommons.org/ns#"
   xmlns:rdf="http://www.w3.org/1999/02/22-rdf-syntax-ns#"
   xmlns:svg="http://www.w3.org/2000/svg"
   xmlns="http://www.w3.org/2000/svg"
   xmlns:sodipodi="http://sodipodi.sourceforge.net/DTD/sodipodi-0.dtd"
   xmlns:inkscape="http://www.inkscape.org/namespaces/inkscape"
   version="1.1"
   id="图层_1"
   x="0px"
   y="0px"
   width="300"
   height="300"
   viewBox="0 0 299.99999 300"
   enable-background="new 0 0 359.945 359"
   xml:space="preserve"
   sodipodi:docname="China's BeiDou Navigation Satellite System logo.svg"
   inkscape:version="0.48.2 r9819"><metadata
   id="metadata137"><rdf:RDF><cc:Work
       rdf:about=""><dc:format>image/svg+xml</dc:format><dc:type
         rdf:resource="http://purl.org/dc/dcmitype/StillImage" /></cc:Work></rdf:RDF></metadata><defs
   id="defs135" /><sodipodi:namedview
   pagecolor="#ffffff"
   bordercolor="#666666"
   borderopacity="1"
   objecttolerance="10"
   gridtolerance="10"
   guidetolerance="10"
   inkscape:pageopacity="0"
   inkscape:pageshadow="2"
   inkscape:window-width="1366"
   inkscape:window-height="706"
   id="namedview133"
   showgrid="false"
   inkscape:zoom="1.3147632"
   inkscape:cx="137.27182"
   inkscape:cy="123.00016"
   inkscape:window-x="-8"
   inkscape:window-y="-8"
   inkscape:window-maximized="1"
   inkscape:current-layer="图层_1" />
<g
   id="g130"
   transform="matrix(0.88971037,0,0,0.88971037,-9.3700949,-13.239714)">
	<path
   d="m 344.991,182.965 c 0,90.016 -73.663,162.982 -164.535,162.982 -90.863,0 -164.525,-72.966 -164.525,-162.982 0,-90.016 73.662,-162.984 164.525,-162.984 90.872,0 164.535,72.968 164.535,162.984 z"
   id="path2"
   inkscape:connector-curvature="0"
   style="fill:#50bde1" />
	<g
   id="g20">
		<path
   d="m 45.842,122.182 3.405,-5.687 -7.082,-4.238 c 1.398,-2.66 2.254,-3.847 2.569,-3.563 0.072,0.043 0.179,0.107 0.322,0.192 0.445,0.558 1.024,1.051 1.739,1.478 l 21.458,12.844 -2.055,3.433 -4.398,-2.633 c -0.199,1.146 -0.325,2.818 -0.38,5.019 -0.115,1.002 -0.17,1.745 -0.169,2.231 -0.601,0.029 -2.086,-0.084 -4.46,-0.339 0.897,-2.96 1.423,-5.946 1.577,-8.965 l -5.793,-3.468 -3.403,5.686 z m 10.386,-14.186 c -0.017,-2.729 -0.319,-5.146 -0.908,-7.248 0.873,-0.156 2.215,-0.373 4.031,-0.647 l 1.072,-0.088 c -0.109,3.432 -0.293,6.82 -0.546,10.166 l 7.51,4.496 c 0.673,0.5 1.208,0.335 1.608,-0.495 l 1.477,-2.469 c 0.257,-0.428 0.164,-0.921 -0.281,-1.479 -0.343,-0.4 -1.245,-1.085 -2.703,-2.056 1.558,-0.815 2.836,-1.653 3.835,-2.513 2.061,1.428 3.241,2.62 3.542,3.577 0.372,1.001 0.11,2.251 -0.789,3.753 l -2.955,4.937 c -1.084,1.973 -2.57,2.347 -4.458,1.119 L 45.418,106.334 c 1.171,-2.115 2.012,-3.36 2.527,-3.734 l 0.214,0.128 c 0.445,0.559 1.095,1.093 1.953,1.606 z"
   id="path4"
   inkscape:connector-curvature="0"
   style="fill:#ffffff" />
		<path
   d="m 71.375,75.135 c 3.022,-0.262 5.972,-0.233 8.849,0.085 l -0.396,4.407 c -2.695,-0.369 -5.494,-0.479 -8.394,-0.329 z m 2.51,6.498 c 1.425,-0.164 3.876,-0.191 7.352,-0.078 0.768,-0.02 1.329,-0.022 1.682,-0.005 l -0.144,4.685 c -2.993,-0.327 -6.032,-0.329 -9.117,-0.01 z m 2.305,-12.545 1.576,-1.427 c 1.235,-1.118 1.938,-1.586 2.105,-1.4 0.113,0.125 0.193,0.276 0.243,0.454 0.268,0.546 0.654,1.095 1.157,1.651 l 9.736,10.753 c 1.624,-1.809 3.218,-3.588 4.78,-5.34 l 2.35,2.595 c -0.562,0.622 -1.37,1.467 -2.428,2.536 -1.062,1.188 -1.875,2.092 -2.437,2.711 l 5.791,6.396 -3.151,2.854 -5.539,-6.118 c -5.818,6.616 -9.291,10.604 -10.42,11.964 l -2.796,-2.529 c 3.737,-3.945 7.387,-7.924 10.95,-11.938 z"
   id="path6"
   inkscape:connector-curvature="0"
   style="fill:#ffffff" />
		<path
   d="m 119.138,68.421 -7.539,-15.937 -6.217,2.941 -1.604,-3.391 19.555,-9.25 5.881,12.434 c 0.823,1.547 0.965,2.725 0.426,3.533 -0.504,0.885 -2.058,2.081 -4.665,3.59 -0.397,-0.642 -1.251,-1.667 -2.562,-3.076 0.11,0.041 0.002,-0.092 -0.328,-0.399 1.393,-0.565 2.223,-1.051 2.493,-1.457 0.229,-0.292 0.132,-0.892 -0.296,-1.796 l -3.53,-7.46 -5.086,2.406 7.54,15.938 12.434,-5.882 1.604,3.391 -25.205,11.924 -1.604,-3.391 z"
   id="path8"
   inkscape:connector-curvature="0"
   style="fill:#ffffff" />
		<path
   d="m 148.748,46.229 -1.768,-11.873 21.15,-3.147 1.767,11.874 -7.915,1.178 0.294,1.979 8.905,-1.325 0.46,3.092 -8.905,1.325 0.276,1.855 7.668,-1.141 0.423,2.845 -7.668,1.141 0.313,2.103 11.007,-1.638 0.46,3.092 -27.333,4.067 -0.46,-3.092 12.121,-1.803 -0.295,-1.979 -6.555,0.976 -0.46,-3.092 6.556,-0.976 -0.258,-1.732 -5.441,0.81 c -0.352,0.475 -0.866,1.267 -1.543,2.378 -0.525,1.007 -0.929,1.699 -1.208,2.077 l -3.652,-1.606 c 1.536,-1.576 2.841,-4.13 3.917,-7.662 z m 15.39,-11.266 -12.492,1.859 0.22,1.484 12.492,-1.858 z m 0.864,5.813 -0.22,-1.484 -12.615,1.876 0.22,1.485 z m -9.657,5.609 -0.613,0.976 3.339,-0.497 -0.294,-1.979 -5.319,0.792 z"
   id="path10"
   inkscape:connector-curvature="0"
   style="fill:#ffffff" />
		<path
   d="m 195.808,40.222 -0.123,0.866 c -0.343,1.214 0.075,1.823 1.255,1.821 l 12.379,1.763 c 1.133,0.332 1.804,-0.248 2.017,-1.734 0.153,0.107 0.429,0.232 0.831,0.372 0.955,0.389 2.157,0.813 3.608,1.271 -0.647,2.772 -1.998,3.969 -4.049,3.591 l -2.351,-0.335 -0.316,2.229 6.435,0.917 -0.476,3.342 -6.313,-0.899 -0.459,3.219 c -0.212,2.074 -0.806,3.295 -1.784,3.662 -0.743,0.481 -2.854,0.519 -6.331,0.108 0.022,-1.344 -0.161,-2.719 -0.549,-4.12 1.802,0.342 2.929,0.417 3.378,0.229 0.519,-0.094 0.841,-0.595 0.972,-1.503 l 0.316,-2.229 -8.17,-1.164 c 0.519,1.084 1.108,2.558 1.771,4.42 l -4.102,1.311 c -0.072,-0.095 -0.166,-0.319 -0.284,-0.672 -0.804,-2.051 -1.404,-3.441 -1.807,-4.172 1.131,-0.259 2.111,-0.626 2.935,-1.098 l -8.292,-1.181 0.476,-3.343 17.951,2.557 0.316,-2.229 -11.264,-1.604 c -2.172,-0.14 -2.986,-1.519 -2.443,-4.137 l 1.463,-10.274 19.93,2.839 -1.198,8.417 z m 0.44,-3.096 11.514,1.64 0.281,-1.98 -11.513,-1.64 z"
   id="path12"
   inkscape:connector-curvature="0"
   style="fill:#ffffff" />
		<path
   d="m 235.317,42.941 2.947,1.372 c 0.97,-1.294 1.615,-2.282 1.933,-2.962 1.967,1.104 3.182,1.851 3.641,2.248 -0.035,0.077 -0.127,0.172 -0.271,0.288 -0.508,0.5 -1.104,1.188 -1.788,2.063 l 3.515,1.636 -9.344,20.064 c -0.439,1.728 -2.484,1.878 -6.141,0.451 0.679,-1.063 0.849,-2.319 0.51,-3.763 1.208,0.563 1.945,0.86 2.206,0.89 0.337,0.065 0.612,-0.13 0.825,-0.583 l 3.535,-7.594 -3.627,-1.689 c -1.443,3.099 -2.76,5.429 -3.945,6.99 -1.041,1.446 -2.402,2.789 -4.082,4.03 -0.521,-1.255 -1.259,-2.333 -2.216,-3.239 2.678,-1.602 4.965,-4.446 6.866,-8.526 l 0.265,-0.567 -2.041,-0.95 1.372,-2.947 2.041,0.95 z m -3.46,18.39 c 0.406,-1.466 0.757,-2.912 1.055,-4.337 l 2.417,0.436 c -0.179,1.572 -0.569,3 -1.167,4.284 z m 5.307,-14.358 -2.639,5.668 3.627,1.689 2.639,-5.668 z m 7.999,8.001 8.048,3.747 -5.754,12.356 c -0.246,0.53 -0.218,0.864 0.084,1.004 0.378,0.177 0.919,-0.49 1.623,-2.003 0.812,1.023 1.673,1.838 2.586,2.446 -1.033,1.818 -1.821,2.921 -2.37,3.311 -0.618,0.539 -1.382,0.598 -2.288,0.175 l -2.153,-1.003 c -1.135,-0.528 -1.766,-1.052 -1.89,-1.569 -0.239,-0.48 -0.092,-1.284 0.435,-2.418 l 5.174,-11.109 -1.587,-0.739 -0.37,0.794 c -1.794,3.853 -3.286,6.562 -4.472,8.124 -1.153,1.487 -2.666,2.759 -4.537,3.819 -0.376,-1.371 -0.968,-2.567 -1.778,-3.587 2.541,-1.114 4.833,-3.863 6.874,-8.247 z m -8.962,-2.38 c 0.231,-1.087 0.418,-2.379 0.563,-3.876 l 2.472,0.323 c -0.062,0.524 -0.257,1.536 -0.588,3.037 0.01,0.373 -0.019,0.635 -0.09,0.786 z m 21.299,5.505 -13.148,-6.123 1.372,-2.947 13.15,6.123 z m -2.009,-9.902 c -0.327,1.689 -0.717,3.024 -1.174,4.004 l -3.839,-1.236 c 0.547,-1.767 0.824,-3.154 0.834,-4.163 z"
   id="path14"
   inkscape:connector-curvature="0"
   style="fill:#ffffff" />
		<path
   d="m 268.986,81.253 c 0.667,1.379 0.973,2.101 0.918,2.162 -2.876,0.339 -6.025,0.485 -9.45,0.441 -0.135,-1.351 -0.45,-2.75 -0.944,-4.197 3.1,0.535 5.959,0.463 8.578,-0.215 0.136,0.347 0.434,0.95 0.898,1.809 z m 12.563,-3.361 c 0.18,0.05 1.187,0.111 3.021,0.186 2.193,0.172 3.322,0.286 3.386,0.342 0.423,1.274 0.655,2.767 0.691,4.477 0.069,0.173 -1.392,-0.071 -4.38,-0.729 -3.708,-0.855 -6.814,-1.507 -9.319,-1.957 l 6.329,5.49 -0.146,-2.649 c 1.485,0.213 2.762,0.348 3.829,0.406 0.189,3.414 0.24,6.42 0.153,9.024 -1.655,-0.025 -3.048,-0.095 -4.174,-0.209 l 0.13,-2.398 -4.558,-3.908 -5.5,6.154 c -0.556,0.621 -1.255,0.776 -2.101,0.472 -0.906,-0.365 -2.257,-1.292 -4.051,-2.784 0.536,-0.976 1.057,-2.186 1.567,-3.63 1.496,1.45 2.437,1.9 2.82,1.347 l 3.833,-4.288 c -3.23,-2.889 -5.644,-4.82 -7.231,-5.794 -0.124,-0.111 -0.218,-0.195 -0.279,-0.25 0.277,-0.311 0.575,-0.77 0.896,-1.378 0.486,-0.796 0.949,-1.501 1.389,-2.114 2.051,1.833 4.678,2.896 7.882,3.189 -1.906,-1.37 -3.661,-2.658 -5.264,-3.868 0.104,-0.242 0.511,-0.885 1.221,-1.928 0.485,-0.795 0.788,-1.196 0.906,-1.202 1.316,1.402 3.558,1.838 6.715,1.306 -0.863,-0.66 -2.069,-1.625 -3.614,-2.897 -0.803,-0.604 -1.391,-1.074 -1.762,-1.406 0.361,-0.906 0.716,-1.929 1.067,-3.071 0.09,-0.478 0.188,-0.838 0.294,-1.08 1.869,1.784 3.706,3.482 5.509,5.093 1.857,1.55 3.592,2.987 5.202,4.313 3.211,2.535 6.001,4.417 8.374,5.642 0.052,0.943 -0.184,2.52 -0.71,4.733 0.013,0.237 -1.096,-0.587 -3.325,-2.47 -2.294,-1.938 -4.335,-3.594 -6.125,-4.971 -0.236,0.013 -1.27,-0.018 -3.104,-0.092 -1.653,-0.024 -2.75,-0.052 -3.28,-0.082 z m -2.545,11.479 c 1.009,3.25 1.678,6.253 2.011,9.008 -1.241,0.01 -2.655,0.03 -4.247,0.061 -0.072,-2.298 -0.592,-5.28 -1.563,-8.946 1.416,0.039 2.685,-0.002 3.799,-0.123 z"
   id="path16"
   inkscape:connector-curvature="0"
   style="fill:#ffffff" />
		<path
   d="m 297.216,113.703 c -0.998,0.606 -1.896,1.297 -2.692,2.072 -3.519,-3.228 -5.768,-5.325 -6.743,-6.292 l -1.271,-1.131 c 0.071,-0.044 0.939,-1.106 2.601,-3.187 2.385,2.648 5.087,5.492 8.105,8.538 z m 7.695,-9.497 c 1.827,-0.037 3.093,-0.122 3.795,-0.254 l 0.204,2.507 2.032,-1.233 3.178,5.238 c 1.423,-1.352 2.219,-2.127 2.391,-2.328 2.026,2.376 3.026,3.623 3,3.737 -0.214,0.129 -0.706,0.524 -1.474,1.187 -0.841,0.705 -1.367,1.123 -1.582,1.252 l 3.439,5.666 -2.886,1.751 -4.217,-6.949 -5.769,0.137 c 1.037,1.71 1.972,3.092 2.809,4.146 0.239,-0.73 0.49,-1.519 0.76,-2.363 l 3.096,1.485 c -1.071,3.379 -2.122,6.065 -3.155,8.058 -0.273,-0.126 -0.351,-0.177 -0.236,-0.149 -1.49,-0.85 -2.567,-1.417 -3.225,-1.699 0.324,-0.588 0.691,-1.348 1.104,-2.279 l -0.561,-0.684 -7.591,4.606 c -0.684,0.317 -0.861,0.669 -0.531,1.053 l 0.26,0.427 c 0.216,0.356 0.487,0.484 0.818,0.382 0.255,-0.059 0.99,-0.454 2.202,-1.19 0.294,1.771 0.723,3.12 1.286,4.046 -2.127,0.998 -3.58,1.49 -4.368,1.48 -0.857,0.032 -1.59,-0.45 -2.194,-1.447 l -2.206,-3.635 c -1.122,-1.366 -0.712,-2.542 1.227,-3.522 l 8.872,-5.385 -0.691,-0.897 c -4.176,2.437 -7.015,3.623 -8.518,3.561 -1.714,0.065 -4.178,-1.025 -7.392,-3.266 0.822,-1.378 1.408,-2.661 1.761,-3.847 1.653,1.921 3.194,2.936 4.625,3.043 1.4,0.221 3.243,-0.359 5.525,-1.744 l 1.71,-1.038 c -0.174,-0.286 -0.483,-0.634 -0.929,-1.046 -0.375,-0.455 -0.526,-0.704 -0.453,-0.748 0.17,-0.202 1.188,-1.013 3.054,-2.439 0.043,0.071 0.165,0.193 0.367,0.363 0.388,0.641 0.755,1.004 1.098,1.088 1.174,0.167 2.811,0.05 4.909,-0.347 l -1.556,-2.564 c -2.118,-0.276 -5.58,-0.517 -10.385,-0.721 0.462,0.599 1.101,1.331 1.921,2.199 0.371,0.455 0.704,0.84 0.992,1.153 -1.198,0.435 -2.241,0.969 -3.123,1.603 -3.037,-3.716 -5.258,-6.171 -6.664,-7.365 l -0.128,-0.214 c 0.682,-0.804 1.727,-1.732 3.137,-2.782 0.114,0.028 0.214,0.112 0.302,0.256 0.633,0.883 1.651,1.435 3.054,1.657 0.643,0.096 1.696,0.141 3.153,0.134 -0.245,-0.242 -0.655,-0.677 -1.229,-1.302 -1.396,-1.493 -2.058,-2.262 -1.984,-2.305 1.022,-1.207 1.902,-2.084 2.646,-2.63 l 0.171,0.042 c 0.934,0.897 1.972,1.24 3.115,1.035 3.826,-0.763 6.29,-1.283 7.391,-1.56 0.567,1.898 0.858,3.427 0.881,4.584 -0.071,0.043 -0.222,0.037 -0.45,-0.019 -1.803,-0.078 -4.468,0.028 -7.997,0.318 z"
   id="path18"
   inkscape:connector-curvature="0"
   style="fill:#ffffff" />
	</g>
	<g
   id="g102">
		<path
   d="m 83.879,299.234 8.594,-11.133 3.396,2.621 c 1.682,1.369 1.931,2.854 0.748,4.459 -1.188,1.396 -2.585,1.715 -4.187,0.953 l -0.148,0.191 c 1.379,1.406 1.477,2.912 0.293,4.516 -1.683,1.969 -3.571,2.213 -5.66,0.736 z m 6.156,-3.826 -3.408,4.416 0.617,0.477 c 1.094,0.641 2.168,0.346 3.226,-0.881 1.283,-1.664 1.137,-3 -0.435,-4.012 z m 0.74,-0.959 c 0.034,0.027 0.067,0.088 0.104,0.184 0.55,0.492 1.111,0.688 1.684,0.586 0.639,-0.121 1.272,-0.551 1.9,-1.291 0.887,-1.221 0.901,-2.197 0.042,-2.928 -0.138,-0.107 -0.36,-0.211 -0.665,-0.311 l -0.103,-0.08 z"
   id="path22"
   inkscape:connector-curvature="0"
   style="fill:#ffffff" />
		<path
   d="m 100.476,305.156 -3.932,-2.658 c -1.521,2.094 -1.617,3.59 -0.287,4.488 0.573,0.387 1.293,0.484 2.158,0.287 l 0.026,0.311 -0.903,0.756 c -0.847,0.014 -1.662,-0.213 -2.446,-0.676 -2.201,-1.621 -2.355,-3.869 -0.46,-6.75 1.822,-2.541 3.802,-3.188 5.939,-1.938 1.914,1.424 1.882,3.485 -0.095,6.18 z m -3.39,-3.463 2.047,1.385 c 1.171,-1.811 1.483,-2.932 0.94,-3.365 -0.784,-0.465 -1.781,0.195 -2.987,1.98 z"
   id="path24"
   inkscape:connector-curvature="0"
   style="fill:#ffffff" />
		<path
   d="m 99.438,310.283 5.196,-8.477 c 0.277,0.297 0.595,0.523 0.956,0.682 0.229,0.203 0.558,0.375 0.984,0.508 l -5.197,8.477 c -0.369,-0.229 -0.684,-0.42 -0.942,-0.58 -0.333,-0.202 -0.666,-0.407 -0.997,-0.61 z m 7.016,-11.816 c 0.581,-0.781 1.231,-1.014 1.954,-0.697 0.616,0.566 0.723,1.266 0.318,2.09 -0.582,0.783 -1.251,1.004 -2.009,0.664 -0.675,-0.475 -0.762,-1.163 -0.263,-2.057 z"
   id="path26"
   inkscape:connector-curvature="0"
   style="fill:#ffffff" />
		<path
   d="m 110.582,300.682 4.989,2.662 c 2.702,1.748 3.153,4.494 1.354,8.234 -2.399,4.033 -5.364,5.262 -8.893,3.684 l -4.073,-2.174 z m 1.608,2.232 -5.479,10.27 1.262,0.672 c 2.345,1.313 4.507,0.115 6.486,-3.594 1.699,-3.184 1.42,-5.377 -0.835,-6.582 z"
   id="path28"
   inkscape:connector-curvature="0"
   style="fill:#ffffff" />
		<path
   d="m 118.799,320.691 c -2.376,-1.166 -2.975,-3.193 -1.795,-6.088 1.469,-3.121 3.446,-4.225 5.931,-3.307 2.314,1.195 2.901,3.252 1.761,6.162 -1.508,3.105 -3.473,4.181 -5.897,3.233 z m 3.838,-8.556 c -1.054,-0.402 -2.166,0.725 -3.338,3.389 -1.107,2.516 -1.165,3.99 -0.173,4.428 0.934,0.352 2.08,-0.908 3.441,-3.783 0.937,-2.237 0.959,-3.581 0.07,-4.034 z"
   id="path30"
   inkscape:connector-curvature="0"
   style="fill:#ffffff" />
		<path
   d="m 134.741,316.107 -3.424,9.332 c -0.366,-0.135 -0.713,-0.262 -1.038,-0.381 -0.367,-0.135 -0.712,-0.26 -1.038,-0.381 l 0.474,-1.291 c -1.145,0.73 -2.115,0.918 -2.91,0.57 -0.999,-0.424 -1.56,-1.031 -1.686,-1.824 -0.158,-0.574 0.013,-1.545 0.514,-2.91 0.037,-0.102 0.094,-0.195 0.172,-0.283 l 1.977,-5.385 c 0.329,0.236 0.686,0.395 1.071,0.477 0.306,0.172 0.662,0.273 1.065,0.307 l -1.977,5.387 c -0.26,0.709 -0.394,1.264 -0.401,1.66 -0.016,0.799 0.229,1.262 0.737,1.391 0.958,0.408 1.778,-0.381 2.461,-2.369 l 1.866,-5.082 c 0.288,0.221 0.625,0.371 1.009,0.455 0.349,0.185 0.723,0.294 1.128,0.327 z"
   id="path32"
   inkscape:connector-curvature="0"
   style="fill:#ffffff" />
		<path
   d="m 141.542,312.295 0.266,0.676 c -2,1.467 -3.556,4.057 -4.667,7.773 -1.115,3.436 -1.248,6.27 -0.402,8.51 l -0.579,0.328 c -1.588,-2.92 -1.796,-6.117 -0.623,-9.59 1.021,-3.576 3.023,-6.14 6.005,-7.697 z"
   id="path34"
   inkscape:connector-curvature="0"
   style="fill:#ffffff" />
		<path
   d="m 148.637,327.781 0.149,0.205 -0.748,1.645 c -1.072,0.176 -2.203,0.141 -3.392,-0.102 -3.829,-1.127 -5.29,-3.854 -4.382,-8.18 1.332,-4.779 4.112,-6.775 8.338,-5.994 1.248,0.371 2.256,0.984 3.024,1.844 -0.205,0.281 -0.429,0.725 -0.669,1.33 -0.121,0.305 -0.194,0.51 -0.221,0.613 l -0.252,-0.063 c -0.426,-1.33 -1.152,-2.18 -2.177,-2.549 -2.435,-0.441 -4.214,1.307 -5.336,5.246 -0.86,3.783 -0.064,6.039 2.391,6.766 1.01,0.255 2.1,0.001 3.275,-0.761 z"
   id="path36"
   inkscape:connector-curvature="0"
   style="fill:#ffffff" />
		<path
   d="m 163.83,325.668 c -1.098,4.568 -3.652,6.635 -7.666,6.197 -3.91,-0.801 -5.549,-3.525 -4.922,-8.174 0.969,-4.592 3.529,-6.684 7.679,-6.279 3.746,0.723 5.383,3.473 4.909,8.256 z m -5.233,-7.08 c -2.456,-0.291 -4.043,1.77 -4.765,6.182 -0.445,3.531 0.415,5.529 2.579,5.99 2.284,0.266 3.859,-1.717 4.726,-5.943 0.419,-3.643 -0.428,-5.721 -2.54,-6.229 z"
   id="path38"
   inkscape:connector-curvature="0"
   style="fill:#ffffff" />
		<path
   d="m 171.736,329.021 c 0.406,-0.891 0.859,-1.834 1.359,-2.826 1.357,-2.771 2.415,-4.969 3.174,-6.594 0.043,0.002 0.149,0.039 0.318,0.102 0.126,0.064 0.233,0.07 0.324,0.023 0.087,0.004 0.217,0.014 0.39,0.023 0.132,-0.045 0.242,-0.064 0.33,-0.059 -0.025,0.377 -0.019,0.918 0.022,1.623 0.13,5.895 0.311,10.064 0.54,12.51 -0.477,-0.031 -0.931,-0.063 -1.362,-0.09 -0.518,-0.035 -0.972,-0.066 -1.362,-0.09 0.02,-1.619 -0.014,-4.053 -0.103,-7.299 0.006,-0.756 0.012,-1.512 0.021,-2.266 -1.508,3.086 -2.95,6.176 -4.328,9.27 -0.213,-0.066 -0.43,-0.082 -0.649,-0.043 -0.611,-1.928 -1.616,-5.1 -3.019,-9.516 -0.409,2.242 -0.701,4.033 -0.876,5.371 -0.223,1.389 -0.351,2.678 -0.386,3.861 -0.303,-0.02 -0.584,-0.037 -0.844,-0.055 -0.259,-0.018 -0.497,-0.033 -0.713,-0.047 0.452,-2.24 1.163,-6.08 2.132,-11.523 0.139,-0.801 0.301,-1.602 0.485,-2.398 0.042,0.004 0.149,0.039 0.318,0.102 0.126,0.063 0.234,0.072 0.325,0.021 0.083,0.061 0.19,0.068 0.324,0.021 0.133,-0.043 0.265,-0.063 0.394,-0.053 0.415,1.597 1.476,4.907 3.186,9.932 z"
   id="path40"
   inkscape:connector-curvature="0"
   style="fill:#ffffff" />
		<path
   d="m 182.933,327.578 0.097,6.141 c -0.478,0.008 -0.889,0.016 -1.235,0.021 -0.434,0.006 -0.868,0.014 -1.3,0.02 l -0.222,-14.063 4.095,-0.063 c 2.34,-0.037 3.55,1.102 3.63,3.418 0.091,3.071 -1.598,4.581 -5.065,4.526 z m -0.108,-6.869 0.09,5.738 c 0.304,0.049 0.671,-0.01 1.103,-0.18 0.904,-0.336 1.388,-1.262 1.451,-2.771 -0.114,-1.723 -0.649,-2.658 -1.604,-2.805 z"
   id="path42"
   inkscape:connector-curvature="0"
   style="fill:#ffffff" />
		<path
   d="m 195.536,328.922 -3.824,0.307 c -0.035,0.113 -0.068,0.25 -0.098,0.412 -0.386,1.709 -0.631,2.998 -0.735,3.871 -0.259,0.02 -0.519,0.041 -0.778,0.061 -0.303,0.025 -0.583,0.047 -0.842,0.066 l 3.658,-14.641 c 0.182,0.094 0.377,0.105 0.59,0.033 0.22,0.037 0.434,-0.008 0.642,-0.131 l 5.738,13.893 c -0.476,0.039 -0.951,0.074 -1.425,0.113 -0.476,0.037 -0.951,0.076 -1.426,0.115 -0.457,-1.369 -0.958,-2.734 -1.5,-4.099 z m -3.538,-1.014 3.046,-0.242 -1.805,-4.639 z"
   id="path44"
   inkscape:connector-curvature="0"
   style="fill:#ffffff" />
		<path
   d="m 205.525,320.441 -0.194,0.027 c -0.606,-1.164 -1.339,-1.684 -2.196,-1.559 -1.194,0.229 -1.693,1.008 -1.5,2.34 0.116,0.801 0.9,1.531 2.354,2.191 2.15,0.939 3.371,2.26 3.662,3.961 0.229,2.799 -1.017,4.477 -3.737,5.033 -0.909,0.078 -1.823,-0.035 -2.743,-0.336 0.091,-0.885 0.113,-1.787 0.068,-2.707 l 0.321,-0.047 c 0.466,1.404 1.325,2.043 2.577,1.914 1.192,-0.227 1.735,-1.014 1.629,-2.359 -0.14,-0.959 -0.975,-1.736 -2.506,-2.332 -2,-0.799 -3.134,-2.131 -3.404,-4 -0.309,-2.73 0.748,-4.355 3.169,-4.869 1.038,-0.094 1.962,0.098 2.778,0.578 -0.048,0.281 -0.104,0.643 -0.171,1.088 -0.059,0.499 -0.095,0.859 -0.107,1.077 z"
   id="path46"
   inkscape:connector-curvature="0"
   style="fill:#ffffff" />
		<path
   d="m 213.462,318.92 -0.191,0.039 c -0.67,-1.127 -1.431,-1.607 -2.28,-1.436 -1.18,0.295 -1.635,1.104 -1.367,2.422 0.16,0.793 0.984,1.479 2.473,2.057 2.199,0.818 3.491,2.07 3.877,3.75 0.386,2.781 -0.766,4.525 -3.452,5.234 -0.903,0.127 -1.821,0.066 -2.756,-0.184 0.041,-0.889 0.012,-1.791 -0.083,-2.705 l 0.318,-0.064 c 0.544,1.373 1.436,1.963 2.68,1.766 1.178,-0.293 1.676,-1.109 1.494,-2.445 -0.192,-0.951 -1.069,-1.68 -2.632,-2.189 -2.041,-0.686 -3.247,-1.951 -3.622,-3.801 -0.46,-2.711 0.504,-4.391 2.893,-5.039 1.031,-0.154 1.964,-0.014 2.805,0.42 -0.032,0.283 -0.068,0.646 -0.11,1.096 -0.031,0.499 -0.047,0.86 -0.047,1.079 z"
   id="path48"
   inkscape:connector-curvature="0"
   style="fill:#ffffff" />
		<path
   d="m 219.22,331.85 -0.58,-0.439 c 0.94,-2.123 0.93,-5.094 -0.03,-8.908 -0.855,-3.396 -2.211,-5.945 -4.069,-7.645 l 0.323,-0.58 c 2.861,1.779 4.718,4.453 5.571,8.014 0.935,3.544 0.53,6.729 -1.215,9.558 z"
   id="path50"
   inkscape:connector-curvature="0"
   style="fill:#ffffff" />
		<path
   d="m 224.859,327.855 -4.277,-13.396 1.548,-0.494 c 1.071,0.789 2.162,1.57 3.274,2.346 2.818,1.986 4.972,3.533 6.463,4.641 l -2.925,-9.162 c 0.206,-0.066 0.434,-0.139 0.681,-0.219 0.206,-0.064 0.413,-0.131 0.62,-0.195 l 4.277,13.396 -1.362,0.436 c -0.922,-0.611 -2.245,-1.545 -3.967,-2.807 -1.606,-1.184 -2.83,-2.094 -3.669,-2.73 l -2.447,-1.682 3.023,9.471 c -0.207,0.068 -0.413,0.133 -0.619,0.199 -0.249,0.077 -0.456,0.144 -0.62,0.196 z"
   id="path52"
   inkscape:connector-curvature="0"
   style="fill:#ffffff" />
		<path
   d="m 240.278,314.576 2.106,5.252 c 0.221,0.668 0.603,0.863 1.145,0.586 l 0.182,0.451 c -0.061,0.082 -0.12,0.166 -0.182,0.246 -0.463,0.359 -0.814,0.588 -1.057,0.684 -0.784,0.258 -1.457,0.033 -2.019,-0.668 -0.123,0.977 -0.616,1.666 -1.479,2.072 -1.49,0.48 -2.556,-0.02 -3.196,-1.506 -0.762,-1.434 -0.208,-2.789 1.664,-4.061 0.039,-0.018 0.13,-0.082 0.271,-0.197 0.322,-0.244 0.542,-0.508 0.663,-0.789 0.082,-0.264 0.061,-0.547 -0.059,-0.848 -0.5,-0.9 -1.235,-1.273 -2.2,-1.121 -0.744,0.357 -1.208,1.008 -1.389,1.953 l -0.12,0.047 -0.633,-1.053 c 0.404,-1.09 1.178,-1.893 2.326,-2.412 1.948,-0.607 3.275,-0.151 3.977,1.364 z m -0.607,4.6 -0.753,-1.877 c -0.1,0.1 -0.23,0.24 -0.392,0.418 -0.443,0.412 -0.725,0.758 -0.845,1.037 -0.182,0.594 -0.133,1.184 0.149,1.768 0.42,1.051 0.912,1.465 1.476,1.238 0.745,-0.24 0.865,-1.102 0.365,-2.584 z"
   id="path54"
   inkscape:connector-curvature="0"
   style="fill:#ffffff" />
		<path
   d="m 242.794,310.615 4.7,5.74 c -0.316,-2.41 -0.725,-4.865 -1.227,-7.369 0.243,0.008 0.469,-0.07 0.684,-0.229 0.178,-0.025 0.363,-0.141 0.554,-0.35 0.069,0.148 0.085,0.289 0.053,0.422 l 0.034,0.072 c 0.029,0.881 0.116,1.73 0.264,2.553 0.013,0.234 0.053,0.572 0.116,1.018 0.273,2.729 0.562,4.824 0.863,6.291 -0.234,0.109 -0.489,0.23 -0.766,0.355 -0.234,0.111 -0.489,0.23 -0.765,0.359 -0.253,-0.236 -0.513,-0.531 -0.774,-0.885 -2.58,-2.955 -4.61,-5.25 -6.09,-6.877 0.437,-0.086 0.841,-0.244 1.21,-0.477 0.379,-0.115 0.759,-0.322 1.144,-0.623 z"
   id="path56"
   inkscape:connector-curvature="0"
   style="fill:#ffffff" />
		<path
   d="m 246.676,304.516 c -0.374,-0.898 -0.239,-1.578 0.404,-2.035 0.802,-0.238 1.455,0.029 1.957,0.801 0.371,0.9 0.219,1.588 -0.461,2.064 -0.752,0.334 -1.388,0.058 -1.9,-0.83 z m 6.537,12.086 -4.604,-8.809 c 0.396,-0.086 0.753,-0.244 1.074,-0.473 0.293,-0.092 0.607,-0.285 0.942,-0.584 l 4.604,8.813 c -0.384,0.199 -0.71,0.371 -0.979,0.512 -0.344,0.179 -0.692,0.361 -1.037,0.541 z"
   id="path58"
   inkscape:connector-curvature="0"
   style="fill:#ffffff" />
		<path
   d="m 258.481,302.191 0.447,0.768 -1.294,0.752 c 0.786,0.23 1.408,0.74 1.867,1.533 1.035,1.955 0.59,3.52 -1.332,4.697 -0.037,0.023 -0.076,0.043 -0.112,0.066 -0.301,0.172 -0.441,0.318 -0.425,0.432 -0.01,0.07 -0.002,0.127 0.024,0.174 -0.03,0.203 0,0.342 0.092,0.414 0.341,0.676 0.91,0.75 1.708,0.223 l 1.278,-0.646 c 1.438,-0.713 2.553,-0.393 3.337,0.959 1.268,2.441 0.755,4.451 -1.535,6.031 -1.955,0.949 -3.371,0.709 -4.247,-0.713 -0.596,-1.025 -0.594,-1.932 0.004,-2.713 l 0.143,-0.27 -0.152,-0.006 c -0.567,0.143 -1.056,-0.135 -1.462,-0.832 -0.422,-0.814 -0.397,-1.637 0.069,-2.473 l 0.187,-0.199 c -1.427,0.395 -2.582,-0.215 -3.464,-1.82 -1.092,-1.797 -0.552,-3.324 1.622,-4.586 0.337,-0.197 0.612,-0.324 0.827,-0.389 0.227,-0.131 0.451,-0.262 0.676,-0.391 z m -2.682,5.481 c 0.813,1.398 1.519,1.922 2.119,1.576 0.637,-0.371 0.481,-1.369 -0.466,-3.002 -0.794,-1.283 -1.485,-1.785 -2.075,-1.506 -0.649,0.44 -0.508,1.416 0.422,2.932 z m 3.232,7.377 c 0.032,0.23 0.135,0.451 0.308,0.662 0.768,1.238 1.816,1.531 3.146,0.885 0.931,-0.727 1.133,-1.717 0.606,-2.971 -0.692,-1.277 -1.743,-1.449 -3.149,-0.506 -0.956,0.43 -1.259,1.072 -0.911,1.93 z"
   id="path60"
   inkscape:connector-curvature="0"
   style="fill:#ffffff" />
		<path
   d="m 266.082,300.389 3.113,4.727 c 0.349,0.607 0.763,0.725 1.238,0.344 l 0.268,0.404 c -0.043,0.094 -0.086,0.186 -0.129,0.277 -0.381,0.445 -0.68,0.74 -0.897,0.883 -0.717,0.408 -1.421,0.324 -2.112,-0.254 0.075,0.984 -0.27,1.76 -1.037,2.328 -1.361,0.768 -2.506,0.49 -3.431,-0.836 -1.035,-1.256 -0.762,-2.691 0.818,-4.314 0.034,-0.023 0.112,-0.104 0.227,-0.244 0.268,-0.305 0.431,-0.607 0.494,-0.906 0.026,-0.275 -0.052,-0.549 -0.229,-0.818 -0.672,-0.783 -1.466,-1.002 -2.38,-0.658 -0.657,0.498 -0.982,1.227 -0.972,2.188 l -0.108,0.072 -0.831,-0.906 c 0.178,-1.146 0.776,-2.09 1.797,-2.826 1.79,-0.989 3.181,-0.807 4.171,0.539 z m 0.325,4.625 -1.112,-1.686 c -0.08,0.117 -0.18,0.279 -0.303,0.488 -0.351,0.49 -0.557,0.887 -0.62,1.184 -0.06,0.621 0.106,1.188 0.5,1.705 0.623,0.945 1.186,1.25 1.692,0.916 0.682,-0.385 0.628,-1.252 -0.157,-2.607 z"
   id="path62"
   inkscape:connector-curvature="0"
   style="fill:#ffffff" />
		<path
   d="m 269.281,296.582 3.429,4.703 c 0.875,1.496 1.645,1.668 2.308,0.518 l 0.476,0.652 c -0.107,0.146 -0.232,0.305 -0.377,0.477 -0.392,0.418 -0.676,0.691 -0.85,0.82 -1.161,0.91 -2.354,0.449 -3.586,-1.389 l -3.239,-4.439 -0.944,0.688 c -0.219,-0.371 -0.49,-0.742 -0.811,-1.109 l 0.947,-0.689 -1.382,-1.895 c 0.369,-0.668 0.729,-1.463 1.077,-2.385 l 2.144,2.939 1.155,-0.844 c 0.214,0.443 0.485,0.814 0.808,1.111 z"
   id="path64"
   inkscape:connector-curvature="0"
   style="fill:#ffffff" />
		<path
   d="m 268.26,290.883 c -0.531,-0.816 -0.521,-1.508 0.026,-2.074 0.747,-0.381 1.438,-0.236 2.071,0.432 0.528,0.816 0.504,1.521 -0.077,2.113 -0.681,0.466 -1.355,0.31 -2.02,-0.471 z m 8.625,10.697 -6.129,-7.826 c 0.373,-0.156 0.695,-0.375 0.971,-0.658 0.271,-0.145 0.545,-0.393 0.819,-0.746 l 6.131,7.826 c -0.341,0.268 -0.633,0.496 -0.87,0.682 -0.307,0.24 -0.614,0.48 -0.922,0.722 z"
   id="path66"
   inkscape:connector-curvature="0"
   style="fill:#ffffff" />
		<path
   d="m 283.492,296.391 c -2.073,1.645 -4.161,1.314 -6.27,-0.996 -2.187,-2.666 -2.333,-4.926 -0.438,-6.775 2.074,-1.576 4.183,-1.223 6.323,1.057 2.154,2.694 2.283,4.932 0.385,6.714 z m -6.076,-7.141 c -0.818,0.777 -0.277,2.266 1.625,4.469 1.794,2.08 3.103,2.768 3.923,2.059 0.721,-0.689 0.073,-2.268 -1.938,-4.732 -1.618,-1.808 -2.82,-2.405 -3.61,-1.796 z"
   id="path68"
   inkscape:connector-curvature="0"
   style="fill:#ffffff" />
		<path
   d="m 287.898,292.275 -6.962,-7.096 c 0.323,-0.164 0.604,-0.404 0.846,-0.717 0.285,-0.203 0.53,-0.48 0.732,-0.832 l 1.075,1.096 c -0.229,-1.285 -0.008,-2.295 0.668,-3.033 1.268,-1.244 2.847,-0.869 4.741,1.123 l 4.19,4.268 c -0.278,0.273 -0.558,0.547 -0.835,0.82 -0.28,0.271 -0.543,0.531 -0.79,0.773 l -3.509,-3.576 c -1.592,-1.684 -2.71,-2.172 -3.354,-1.467 -0.773,0.758 -0.261,1.994 1.537,3.701 l 3.284,3.346 c -0.247,0.242 -0.511,0.5 -0.788,0.773 -0.277,0.275 -0.555,0.548 -0.835,0.821 z"
   id="path70"
   inkscape:connector-curvature="0"
   style="fill:#ffffff" />
		<path
   d="m 293.04,270.089 -0.127,0.148 c -1.227,-0.469 -2.118,-0.372 -2.678,0.289 -0.742,0.962 -0.6,1.878 0.429,2.747 0.619,0.521 1.69,0.548 3.215,0.079 2.234,-0.722 4.022,-0.544 5.368,0.535 2.028,1.942 2.208,4.024 0.54,6.247 -0.628,0.66 -1.388,1.184 -2.275,1.566 -0.519,-0.723 -1.1,-1.412 -1.743,-2.071 l 0.211,-0.248 c 1.277,0.741 2.343,0.649 3.196,-0.276 0.742,-0.96 0.626,-1.909 -0.346,-2.846 -0.74,-0.627 -1.882,-0.654 -3.423,-0.084 -2.026,0.729 -3.759,0.482 -5.2,-0.734 -2.041,-1.841 -2.326,-3.757 -0.855,-5.748 0.713,-0.759 1.533,-1.228 2.462,-1.409 0.149,0.242 0.347,0.55 0.592,0.927 0.285,0.413 0.497,0.706 0.634,0.878 z"
   id="path72"
   inkscape:connector-curvature="0"
   style="fill:#ffffff" />
		<path
   d="m 301.5,265.688 4.527,3.394 c 0.534,0.455 0.961,0.425 1.281,-0.095 l 0.39,0.292 c -0.01,0.102 -0.019,0.204 -0.028,0.304 -0.208,0.548 -0.39,0.926 -0.547,1.134 -0.537,0.627 -1.227,0.786 -2.074,0.477 0.404,0.899 0.342,1.746 -0.188,2.54 -1.022,1.185 -2.194,1.31 -3.513,0.374 -1.396,-0.831 -1.626,-2.277 -0.688,-4.336 0.024,-0.034 0.069,-0.137 0.131,-0.309 0.146,-0.377 0.2,-0.716 0.157,-1.02 -0.067,-0.267 -0.233,-0.499 -0.49,-0.692 -0.896,-0.51 -1.719,-0.448 -2.464,0.185 -0.45,0.691 -0.508,1.487 -0.173,2.389 l -0.078,0.104 -1.088,-0.572 c -0.22,-1.141 0.022,-2.23 0.735,-3.269 1.352,-1.533 2.722,-1.833 4.11,-0.9 z m 1.867,4.244 -1.616,-1.213 c -0.034,0.137 -0.073,0.325 -0.116,0.563 -0.167,0.581 -0.229,1.021 -0.186,1.323 0.152,0.604 0.502,1.082 1.045,1.436 0.906,0.679 1.541,0.775 1.904,0.289 0.512,-0.592 0.169,-1.39 -1.031,-2.398 z"
   id="path74"
   inkscape:connector-curvature="0"
   style="fill:#ffffff" />
		<path
   d="m 303.204,261.038 4.821,3.26 c 1.33,1.109 2.112,1.011 2.347,-0.297 l 0.67,0.453 c -0.054,0.174 -0.116,0.366 -0.194,0.575 -0.229,0.527 -0.402,0.88 -0.522,1.06 -0.781,1.251 -2.062,1.223 -3.843,-0.088 l -4.554,-3.078 -0.655,0.969 c -0.333,-0.276 -0.712,-0.532 -1.139,-0.77 l 0.657,-0.969 -1.943,-1.313 c 0.12,-0.755 0.189,-1.626 0.204,-2.609 l 3.013,2.037 0.802,-1.186 c 0.352,0.345 0.733,0.602 1.137,0.77 z"
   id="path76"
   inkscape:connector-curvature="0"
   style="fill:#ffffff" />
		<path
   d="m 311.375,254.819 -2.463,4.058 c 2.167,1.417 3.665,1.439 4.498,0.067 0.359,-0.593 0.421,-1.316 0.182,-2.17 l 0.309,-0.041 0.8,0.864 c 0.055,0.845 -0.133,1.67 -0.558,2.476 -1.51,2.278 -3.749,2.543 -6.719,0.79 -2.627,-1.694 -3.369,-3.641 -2.225,-5.836 1.33,-1.982 3.386,-2.052 6.176,-0.208 z m -3.292,3.555 1.282,-2.112 c -1.865,-1.08 -3.001,-1.338 -3.406,-0.773 -0.426,0.804 0.284,1.767 2.124,2.885 z"
   id="path78"
   inkscape:connector-curvature="0"
   style="fill:#ffffff" />
		<path
   d="m 303.936,246.144 13.693,7.469 c -0.206,0.381 -0.384,0.704 -0.528,0.971 -0.186,0.342 -0.374,0.685 -0.56,1.026 l -13.695,-7.469 c 0.062,-0.113 0.18,-0.271 0.352,-0.475 0.151,-0.164 0.245,-0.335 0.279,-0.514 0.041,-0.076 0.114,-0.209 0.219,-0.399 0.077,-0.253 0.157,-0.457 0.24,-0.609 z"
   id="path80"
   inkscape:connector-curvature="0"
   style="fill:#ffffff" />
		<path
   d="m 305.9,242.32 13.932,7.016 c -0.193,0.388 -0.361,0.717 -0.496,0.987 -0.175,0.349 -0.351,0.696 -0.526,1.045 l -13.932,-7.016 c 0.057,-0.115 0.169,-0.277 0.335,-0.485 0.145,-0.17 0.232,-0.344 0.263,-0.523 0.039,-0.077 0.106,-0.212 0.204,-0.405 0.069,-0.258 0.143,-0.464 0.22,-0.619 z"
   id="path82"
   inkscape:connector-curvature="0"
   style="fill:#ffffff" />
		<path
   d="m 308.384,241.452 c -0.844,-0.485 -1.149,-1.105 -0.921,-1.858 0.492,-0.679 1.174,-0.865 2.041,-0.561 0.843,0.487 1.141,1.127 0.894,1.918 -0.394,0.725 -1.065,0.892 -2.014,0.501 z m 12.552,5.594 -9.021,-4.176 c 0.262,-0.309 0.449,-0.651 0.563,-1.028 0.178,-0.252 0.309,-0.598 0.392,-1.036 l 9.021,4.176 c -0.182,0.394 -0.337,0.729 -0.463,1.003 -0.166,0.354 -0.329,0.707 -0.492,1.061 z"
   id="path84"
   inkscape:connector-curvature="0"
   style="fill:#ffffff" />
		<path
   d="m 316.03,236.949 5.367,2.249 c 1.524,0.827 2.271,0.576 2.243,-0.752 l 0.745,0.313 c -0.017,0.181 -0.043,0.382 -0.077,0.603 -0.119,0.562 -0.219,0.941 -0.303,1.141 -0.521,1.381 -1.781,1.604 -3.786,0.67 l -5.069,-2.124 -0.451,1.08 c -0.382,-0.206 -0.805,-0.384 -1.268,-0.532 l 0.451,-1.078 -2.161,-0.906 c -0.031,-0.765 -0.135,-1.63 -0.313,-2.599 l 3.354,1.405 0.553,-1.318 c 0.414,0.268 0.837,0.445 1.268,0.53 z"
   id="path86"
   inkscape:connector-curvature="0"
   style="fill:#ffffff" />
		<path
   d="m 322.814,229.239 -1.612,4.463 c 2.404,0.961 3.878,0.687 4.423,-0.822 0.234,-0.652 0.15,-1.372 -0.249,-2.163 l 0.294,-0.102 0.953,0.69 c 0.22,0.817 0.201,1.662 -0.058,2.537 -1.028,2.53 -3.172,3.232 -6.429,2.101 -2.911,-1.142 -4.023,-2.903 -3.335,-5.282 0.91,-2.204 2.916,-2.68 6.013,-1.422 z m -2.525,4.134 0.841,-2.324 c -2.043,-0.69 -3.206,-0.718 -3.492,-0.085 -0.26,0.873 0.626,1.677 2.651,2.409 z"
   id="path88"
   inkscape:connector-curvature="0"
   style="fill:#ffffff" />
		<path
   d="m 319.822,216.06 -0.049,0.188 c -1.309,0.111 -2.072,0.586 -2.288,1.425 -0.251,1.188 0.277,1.951 1.579,2.287 0.784,0.201 1.762,-0.239 2.932,-1.326 1.697,-1.619 3.388,-2.235 5.067,-1.848 2.67,0.868 3.735,2.665 3.2,5.391 -0.279,0.868 -0.736,1.668 -1.371,2.399 -0.78,-0.425 -1.603,-0.794 -2.468,-1.107 l 0.081,-0.314 c 1.474,0.111 2.395,-0.434 2.76,-1.638 0.251,-1.188 -0.266,-1.993 -1.549,-2.413 -0.939,-0.243 -1.978,0.228 -3.119,1.411 -1.508,1.536 -3.176,2.067 -5.002,1.596 -2.64,-0.77 -3.729,-2.371 -3.268,-4.804 0.312,-0.993 0.847,-1.773 1.604,-2.338 0.241,0.151 0.554,0.343 0.938,0.576 0.436,0.247 0.755,0.419 0.953,0.515 z"
   id="path90"
   inkscape:connector-curvature="0"
   style="fill:#ffffff" />
		<path
   d="m 336.742,216.327 -4.672,-3.09 -10.403,1.428 c 0.182,-0.362 0.286,-0.761 0.314,-1.197 0.137,-0.415 0.194,-0.846 0.169,-1.292 1.221,-0.071 2.954,-0.222 5.192,-0.451 0.676,-0.089 1.185,-0.167 1.527,-0.233 l -1.939,-1.038 c -1.347,-0.702 -2.692,-1.403 -4.039,-2.106 0.149,-0.192 0.217,-0.399 0.204,-0.623 0.094,-0.202 0.114,-0.441 0.058,-0.718 l 4.359,2.567 c 3.73,2.269 6.898,4.052 9.501,5.352 -0.058,0.298 -0.104,0.531 -0.137,0.7 -0.048,0.255 -0.093,0.489 -0.134,0.701 z"
   id="path92"
   inkscape:connector-curvature="0"
   style="fill:#ffffff" />
		<path
   d="m 330.608,207.215 0.054,-0.387 c 1.227,-0.224 1.899,-0.765 2.021,-1.624 0,-0.787 -0.367,-1.274 -1.104,-1.466 -0.532,-0.073 -1.108,0.351 -1.725,1.271 -0.961,1.442 -2.137,2.067 -3.524,1.875 -2.017,-0.367 -2.98,-1.463 -2.891,-3.289 0.18,-0.894 0.61,-1.643 1.292,-2.249 0.623,0.218 1.192,0.428 1.708,0.631 l -0.063,0.451 c -1.05,0.116 -1.685,0.576 -1.904,1.376 -0.054,0.78 0.294,1.222 1.039,1.326 0.59,0.081 1.161,-0.32 1.718,-1.206 0.974,-1.528 2.18,-2.192 3.621,-1.992 1.957,0.403 2.85,1.62 2.678,3.652 -0.18,0.894 -0.522,1.613 -1.035,2.154 -0.212,-0.03 -0.526,-0.116 -0.942,-0.263 -0.367,-0.093 -0.681,-0.181 -0.943,-0.26 z"
   id="path94"
   inkscape:connector-curvature="0"
   style="fill:#ffffff" />
		<path
   d="m 325.711,197.156 5.795,0.548 c 1.7,0.335 2.339,-0.126 1.916,-1.386 l 0.805,0.077 c 0.039,0.178 0.073,0.378 0.106,0.598 0.053,0.571 0.071,0.964 0.051,1.18 -0.086,1.473 -1.223,2.062 -3.415,1.767 l -5.472,-0.518 -0.11,1.164 c -0.425,-0.082 -0.882,-0.126 -1.367,-0.129 l 0.11,-1.165 -2.333,-0.221 c -0.257,-0.72 -0.614,-1.516 -1.073,-2.387 l 3.62,0.343 0.135,-1.424 c 0.474,0.133 0.931,0.176 1.367,0.13 z"
   id="path96"
   inkscape:connector-curvature="0"
   style="fill:#ffffff" />
		<path
   d="m 329.892,187.777 -0.211,4.74 c 2.58,0.202 3.907,-0.498 3.979,-2.1 0.03,-0.693 -0.264,-1.356 -0.884,-1.992 l 0.251,-0.184 1.116,0.375 c 0.453,0.714 0.686,1.528 0.7,2.439 -0.229,2.723 -2.065,4.031 -5.513,3.92 -3.118,-0.225 -4.704,-1.575 -4.756,-4.05 0.216,-2.376 1.987,-3.426 5.318,-3.148 z m -1.18,4.698 0.11,-2.468 c -2.153,-0.052 -3.274,0.268 -3.36,0.957 0.015,0.912 1.099,1.416 3.25,1.511 z"
   id="path98"
   inkscape:connector-curvature="0"
   style="fill:#ffffff" />
		<path
   d="m 334.923,185.978 -9.934,0.348 c 0.098,-0.306 0.109,-0.675 0.04,-1.107 0.041,-0.392 0,-0.781 -0.12,-1.167 l 1.533,-0.053 c -1.041,-0.526 -1.635,-1.331 -1.782,-2.409 0.019,-1.042 0.612,-1.799 1.78,-2.275 -1.209,-0.651 -1.855,-1.452 -1.943,-2.403 -0.062,-1.731 1.12,-2.642 3.543,-2.727 l 6.462,-0.227 c 0.013,0.348 0.024,0.715 0.039,1.105 0.014,0.39 0.026,0.78 0.04,1.169 l -5.492,0.192 c -1.94,0.026 -2.894,0.471 -2.865,1.337 0.037,0.997 0.807,1.425 2.311,1.285 l 6.14,-0.216 c 0.012,0.39 0.026,0.78 0.04,1.17 0.013,0.348 0.024,0.715 0.039,1.105 l -5.492,0.192 c -1.939,0.068 -2.895,0.514 -2.865,1.337 0.032,0.953 0.886,1.378 2.551,1.276 l 5.896,-0.207 c 0.015,0.39 0.028,0.78 0.041,1.169 0.016,0.434 0.028,0.802 0.038,1.106 z"
   id="path100"
   inkscape:connector-curvature="0"
   style="fill:#ffffff" />
	</g>
	<path
   d="m 293.042,182.561 c 0,15.358 -15.92,29.382 -40.497,38.795 1.944,-9.425 3.206,-19.354 3.684,-29.635 -4.749,3.141 -8.494,5.639 -10.895,6.727 -0.776,9.338 -2.215,18.31 -4.244,26.762 -12.229,3.614 -26.017,6.174 -40.691,7.389 -7.174,5.271 -15.115,10.86 -23.784,16.555 0.159,6.488 0.341,12.638 0.549,18.306 -8.785,-0.239 -17.302,-1.273 -25.459,-2.972 -6.256,3.594 -12.769,7.153 -19.559,10.621 3.288,4.608 6.801,8.802 10.544,12.445 -6.429,-2.383 -12.564,-5.35 -18.373,-8.806 -4.331,1.849 -8.503,3.322 -12.526,4.462 19.859,13.75 44.029,21.82 70.108,21.82 67.637,0 122.473,-54.258 122.473,-121.191 0,-5.146 -0.35,-10.209 -0.986,-15.183 -4.288,0.965 -8.525,2.319 -12.646,3.935 1.489,3.237 2.302,6.568 2.302,9.97 z m -149.64,90.734 c 10.823,2.753 22.304,4.348 34.207,4.619 0.316,6.445 0.68,11.986 1.096,16.369 -13.142,-0.865 -25.288,-8.519 -35.303,-20.988 z m 43.542,-29.516 c 18.367,-0.406 35.546,-2.762 50.791,-6.66 -2.676,8.224 -5.936,15.8 -9.681,22.573 -12.428,4.376 -26.07,7.076 -40.442,7.694 -0.263,-7.159 -0.484,-15.104 -0.668,-23.607 z m 2.182,49.748 c -0.406,-4.141 -0.761,-9.457 -1.069,-15.699 10.746,-0.466 21.118,-2.029 30.954,-4.531 -8.624,10.734 -18.824,17.892 -29.885,20.23 z m 29.742,-5.173 c 5.843,-5.516 11.193,-12.255 15.908,-20.032 16.916,-6.46 31.635,-15.888 43.075,-27.396 -13.377,21.891 -34.208,38.839 -58.983,47.428 z m 23.5,-34.705 c 2.757,-6.246 5.162,-12.926 7.164,-19.972 13.685,-4.547 25.337,-10.454 34.282,-17.358 -8.754,15.302 -23.265,28.267 -41.446,37.33 z"
   id="path104"
   inkscape:connector-curvature="0"
   style="fill:#ffffff" />
	<g
   id="g124">
		<path
   d="m 295.887,139.541 -0.017,0.004 C 277.991,94.537 233.727,62.656 181.898,62.656 c -51.835,0 -96.117,31.876 -114,76.884 -3.067,11.111 -7.919,43.22 30.031,63.973 46.502,25.428 94.572,-4.877 94.572,-4.877 0,0 50.855,-28.913 67.576,-35.877 10.572,-4.404 26.182,-10.213 39.477,-12.556 32.832,-5.341 45.437,25.198 45.437,25.198 -6.376,-44.673 -49.104,-35.86 -49.104,-35.86 z"
   id="path106"
   inkscape:connector-curvature="0"
   style="fill:#205b88" />
		<g
   id="g122">
			<circle
   cx="98.132004"
   cy="122.702"
   r="6.4899998"
   id="circle108"
   style="fill:#ffffff"
   d="m 104.622,122.702 c 0,3.58433 -2.90567,6.49 -6.489996,6.49 -3.584328,0 -6.49,-2.90567 -6.49,-6.49 0,-3.58432 2.905672,-6.49 6.49,-6.49 3.584326,0 6.489996,2.90568 6.489996,6.49 z"
   sodipodi:cx="98.132004"
   sodipodi:cy="122.702"
   sodipodi:rx="6.4899998"
   sodipodi:ry="6.4899998" />
			<path
   d="m 138.461,113.663 c 0,3.586 -2.904,6.488 -6.489,6.488 -3.586,0 -6.49,-2.902 -6.49,-6.488 0,-3.586 2.904,-6.488 6.49,-6.488 3.585,-10e-4 6.489,2.902 6.489,6.488 z"
   id="path110"
   inkscape:connector-curvature="0"
   style="fill:#ffffff" />
			<path
   d="m 170.447,114.822 c 0,3.586 -2.904,6.488 -6.489,6.488 -3.586,0 -6.49,-2.902 -6.49,-6.488 0,-3.586 2.904,-6.491 6.49,-6.491 3.584,10e-4 6.489,2.905 6.489,6.491 z"
   id="path112"
   inkscape:connector-curvature="0"
   style="fill:#ffffff" />
			<circle
   cx="191.075"
   cy="123.862"
   r="6.4899998"
   id="circle114"
   style="fill:#ffffff"
   d="m 197.565,123.862 c 0,3.58433 -2.90568,6.49 -6.49,6.49 -3.58433,0 -6.49,-2.90567 -6.49,-6.49 0,-3.58433 2.90567,-6.49 6.49,-6.49 3.58432,0 6.49,2.90567 6.49,6.49 z"
   sodipodi:cx="191.075"
   sodipodi:cy="123.862"
   sodipodi:rx="6.4899998"
   sodipodi:ry="6.4899998" />
			<circle
   cx="201.27299"
   cy="151.211"
   r="6.4899998"
   id="circle116"
   style="fill:#ffffff"
   d="m 207.76299,151.211 c 0,3.58433 -2.90567,6.49 -6.49,6.49 -3.58432,0 -6.48999,-2.90567 -6.48999,-6.49 0,-3.58433 2.90567,-6.49 6.48999,-6.49 3.58433,0 6.49,2.90567 6.49,6.49 z"
   sodipodi:cx="201.27299"
   sodipodi:cy="151.211"
   sodipodi:rx="6.4899998"
   sodipodi:ry="6.4899998" />
			<circle
   cx="238.59"
   cy="154.224"
   r="6.4899998"
   id="circle118"
   style="fill:#ffffff"
   d="m 245.08,154.224 c 0,3.58433 -2.90568,6.49 -6.49,6.49 -3.58433,0 -6.49,-2.90567 -6.49,-6.49 0,-3.58433 2.90567,-6.49 6.49,-6.49 3.58432,0 6.49,2.90567 6.49,6.49 z"
   sodipodi:cx="238.59"
   sodipodi:cy="154.224"
   sodipodi:rx="6.4899998"
   sodipodi:ry="6.4899998" />
			<circle
   cx="255.97301"
   cy="117.371"
   r="6.4899998"
   id="circle120"
   style="fill:#ffffff"
   d="m 262.46301,117.371 c 0,3.58433 -2.90567,6.49 -6.49,6.49 -3.58433,0 -6.49,-2.90567 -6.49,-6.49 0,-3.58433 2.90567,-6.49 6.49,-6.49 3.58433,0 6.49,2.90567 6.49,6.49 z"
   sodipodi:cx="255.97301"
   sodipodi:cy="117.371"
   sodipodi:rx="6.4899998"
   sodipodi:ry="6.4899998" />
		</g>
	</g>
	<path
   d="m 151.252,236.533 c 17.068,-4.878 91.611,-51.413 91.611,-51.413 0,0 32.509,-21.773 58.817,-26.504 -0.612,-2.841 -1.318,-5.647 -2.127,-8.413 -13.295,2.343 -28.904,8.152 -39.477,12.556 -16.72,6.964 -67.575,35.877 -67.575,35.877 0,0 -48.069,30.305 -94.572,4.877 -37.95,-20.752 -33.099,-52.861 -30.031,-63.973 -5.454,13.728 -8.48,28.66 -8.48,44.298 0,16.781 3.449,32.762 9.679,47.294 1.489,1.314 3.076,2.556 4.824,3.659 33.093,20.901 60.264,6.62 77.331,1.742 z"
   id="path126"
   inkscape:connector-curvature="0"
   style="fill:#50bde1" />
	<path
   d="m 69.394,136.214 c 0,0 -71.756,49.359 -33.962,123.781 0,0 33.022,47.597 96.541,15.203 63.518,-32.395 104.179,-72.801 113.108,-76.631 8.929,-3.833 38.232,-29.251 67.786,-31.35 0,0 18.079,-0.72 32.035,10.438 0,0 -6.943,-20.063 -34.112,-19.953 -27.17,0.11 -67.925,27.418 -67.925,27.418 0,0 -74.544,46.535 -91.612,51.413 -17.068,4.878 -44.239,19.159 -77.33,-1.741 -33.091,-20.9 -18.462,-82.208 -4.529,-98.578 z"
   id="path128"
   inkscape:connector-curvature="0"
   style="fill:#ffffff" />
</g>
</svg>